<svg xmlns="http://www.w3.org/2000/svg" viewBox="0 0 64 64">
  <defs>
    <linearGradient id="bg" x1="0" y1="0" x2="1" y2="1">
      <stop offset="0%" stop-color="#2f68bf" />
      <stop offset="100%" stop-color="#138d96" />
    </linearGradient>
  </defs>
  <rect x="4" y="4" width="56" height="56" rx="16" fill="url(#bg)" />
  <path
    d="M22 16h14l10 10v22a4 4 0 0 1-4 4H22a4 4 0 0 1-4-4V20a4 4 0 0 1 4-4Z"
    fill="#f8fbff"
    opacity="0.96"
  />
  <path d="M36 16v10h10" fill="none" stroke="#d7e6fb" stroke-width="3" stroke-linejoin="round" />
  <circle cx="30" cy="36" r="8" fill="none" stroke="#138d96" stroke-width="3" />
  <path d="M30 28v16M22 36h16" stroke="#138d96" stroke-width="3" stroke-linecap="round" />
  <path
    d="M20 48c3.5-4.2 8.2-6.3 14-6.3 5.1 0 9.3 1.5 12.6 4.5"
    fill="none"
    stroke="#2f68bf"
    stroke-width="3"
    stroke-linecap="round"
  />
</svg>
